<svg id="visual" viewBox="0 0 1650 300" width="1650" height="300" xmlns="http://www.w3.org/2000/svg" xmlns:xlink="http://www.w3.org/1999/xlink" version="1.1"><path d="M0 19L23 24.5C46 30 92 41 137.8 44C183.7 47 229.3 42 275.2 36.5C321 31 367 25 412.8 27.5C458.7 30 504.3 41 550.2 42C596 43 642 34 687.8 29.5C733.7 25 779.3 25 825.2 24C871 23 917 21 962.8 20.5C1008.7 20 1054.3 21 1100.2 21C1146 21 1192 20 1237.8 22C1283.7 24 1329.3 29 1375.2 34C1421 39 1467 44 1512.8 44C1558.7 44 1604.3 39 1627.2 36.5L1650 34L1650 0L1627.2 0C1604.3 0 1558.7 0 1512.8 0C1467 0 1421 0 1375.2 0C1329.3 0 1283.7 0 1237.8 0C1192 0 1146 0 1100.2 0C1054.3 0 1008.7 0 962.8 0C917 0 871 0 825.2 0C779.3 0 733.7 0 687.8 0C642 0 596 0 550.2 0C504.3 0 458.7 0 412.8 0C367 0 321 0 275.2 0C229.3 0 183.7 0 137.8 0C92 0 46 0 23 0L0 0Z" fill="#3374b8"></path><path d="M0 49L23 51.5C46 54 92 59 137.8 61C183.7 63 229.3 62 275.2 58C321 54 367 47 412.8 47.5C458.7 48 504.3 56 550.2 57C596 58 642 52 687.8 49.5C733.7 47 779.3 48 825.2 49C871 50 917 51 962.8 48.5C1008.7 46 1054.3 40 1100.2 36.5C1146 33 1192 32 1237.8 34.5C1283.7 37 1329.3 43 1375.2 50C1421 57 1467 65 1512.8 68C1558.7 71 1604.3 69 1627.2 68L1650 67L1650 32L1627.2 34.5C1604.3 37 1558.7 42 1512.8 42C1467 42 1421 37 1375.2 32C1329.3 27 1283.7 22 1237.8 20C1192 18 1146 19 1100.2 19C1054.3 19 1008.7 18 962.8 18.5C917 19 871 21 825.2 22C779.3 23 733.7 23 687.8 27.5C642 32 596 41 550.2 40C504.3 39 458.7 28 412.8 25.5C367 23 321 29 275.2 34.5C229.3 40 183.7 45 137.8 42C92 39 46 28 23 22.5L0 17Z" fill="#00a0af"></path><path d="M0 139L23 140C46 141 92 143 137.8 137C183.7 131 229.3 117 275.2 112C321 107 367 111 412.8 118C458.7 125 504.3 135 550.2 137.5C596 140 642 135 687.8 127C733.7 119 779.3 108 825.2 102.5C871 97 917 97 962.8 100.5C1008.7 104 1054.3 111 1100.2 112C1146 113 1192 108 1237.8 105C1283.7 102 1329.3 101 1375.2 106C1421 111 1467 122 1512.8 136.5C1558.7 151 1604.3 169 1627.2 178L1650 187L1650 65L1627.2 66C1604.3 67 1558.7 69 1512.8 66C1467 63 1421 55 1375.2 48C1329.3 41 1283.7 35 1237.8 32.5C1192 30 1146 31 1100.2 34.5C1054.3 38 1008.7 44 962.8 46.5C917 49 871 48 825.2 47C779.3 46 733.7 45 687.8 47.5C642 50 596 56 550.2 55C504.3 54 458.7 46 412.8 45.5C367 45 321 52 275.2 56C229.3 60 183.7 61 137.8 59C92 57 46 52 23 49.5L0 47Z" fill="#76bc81"></path><path d="M0 175L23 175C46 175 92 175 137.8 170C183.7 165 229.3 155 275.2 149.5C321 144 367 143 412.8 148C458.7 153 504.3 164 550.2 169C596 174 642 173 687.8 162.5C733.7 152 779.3 132 825.2 125.5C871 119 917 126 962.8 133C1008.7 140 1054.3 147 1100.2 144.5C1146 142 1192 130 1237.8 126C1283.7 122 1329.3 126 1375.2 135.5C1421 145 1467 160 1512.8 172C1558.7 184 1604.3 193 1627.2 197.5L1650 202L1650 185L1627.2 176C1604.3 167 1558.7 149 1512.8 134.5C1467 120 1421 109 1375.2 104C1329.3 99 1283.7 100 1237.8 103C1192 106 1146 111 1100.2 110C1054.3 109 1008.7 102 962.8 98.5C917 95 871 95 825.2 100.5C779.3 106 733.7 117 687.8 125C642 133 596 138 550.2 135.5C504.3 133 458.7 123 412.8 116C367 109 321 105 275.2 110C229.3 115 183.7 129 137.8 135C92 141 46 139 23 138L0 137Z" fill="#a7c170"></path><path d="M0 208L23 208C46 208 92 208 137.8 202C183.7 196 229.3 184 275.2 178.5C321 173 367 174 412.8 180C458.7 186 504.3 197 550.2 202C596 207 642 206 687.8 193C733.7 180 779.3 155 825.2 149C871 143 917 156 962.8 164C1008.7 172 1054.3 175 1100.2 173C1146 171 1192 164 1237.8 158.5C1283.7 153 1329.3 149 1375.2 157C1421 165 1467 185 1512.8 197.5C1558.7 210 1604.3 215 1627.2 217.5L1650 220L1650 200L1627.2 195.5C1604.3 191 1558.7 182 1512.8 170C1467 158 1421 143 1375.2 133.5C1329.3 124 1283.7 120 1237.8 124C1192 128 1146 140 1100.2 142.5C1054.3 145 1008.7 138 962.8 131C917 124 871 117 825.2 123.5C779.3 130 733.7 150 687.8 160.5C642 171 596 172 550.2 167C504.3 162 458.7 151 412.8 146C367 141 321 142 275.2 147.5C229.3 153 183.7 163 137.8 168C92 173 46 173 23 173L0 173Z" fill="#76bc81"></path><path d="M0 277L23 276C46 275 92 273 137.8 268C183.7 263 229.3 255 275.2 250C321 245 367 243 412.8 248.5C458.7 254 504.3 267 550.2 272C596 277 642 274 687.8 267C733.7 260 779.3 249 825.2 248.5C871 248 917 258 962.8 257.5C1008.7 257 1054.3 246 1100.2 238.5C1146 231 1192 227 1237.8 232C1283.7 237 1329.3 251 1375.2 256.5C1421 262 1467 259 1512.8 260C1558.7 261 1604.3 266 1627.2 268.5L1650 271L1650 218L1627.2 215.5C1604.3 213 1558.7 208 1512.8 195.5C1467 183 1421 163 1375.2 155C1329.3 147 1283.7 151 1237.8 156.5C1192 162 1146 169 1100.2 171C1054.3 173 1008.7 170 962.8 162C917 154 871 141 825.2 147C779.3 153 733.7 178 687.8 191C642 204 596 205 550.2 200C504.3 195 458.7 184 412.8 178C367 172 321 171 275.2 176.5C229.3 182 183.7 194 137.8 200C92 206 46 206 23 206L0 206Z" fill="#00a0af"></path><path d="M0 301L23 301C46 301 92 301 137.8 301C183.7 301 229.3 301 275.2 301C321 301 367 301 412.8 301C458.7 301 504.3 301 550.2 301C596 301 642 301 687.8 301C733.7 301 779.3 301 825.2 301C871 301 917 301 962.8 301C1008.7 301 1054.3 301 1100.2 301C1146 301 1192 301 1237.8 301C1283.7 301 1329.3 301 1375.2 301C1421 301 1467 301 1512.8 301C1558.7 301 1604.3 301 1627.2 301L1650 301L1650 269L1627.2 266.5C1604.3 264 1558.7 259 1512.8 258C1467 257 1421 260 1375.2 254.5C1329.3 249 1283.7 235 1237.8 230C1192 225 1146 229 1100.2 236.5C1054.3 244 1008.7 255 962.8 255.5C917 256 871 246 825.2 246.5C779.3 247 733.7 258 687.8 265C642 272 596 275 550.2 270C504.3 265 458.7 252 412.8 246.5C367 241 321 243 275.2 248C229.3 253 183.7 261 137.8 266C92 271 46 273 23 274L0 275Z" fill="#3374b8"></path></svg>