<svg id="visual" viewBox="0 0 1250 600" width="1250" height="600" xmlns="http://www.w3.org/2000/svg" xmlns:xlink="http://www.w3.org/1999/xlink" version="1.1"><path d="M0 169L52.2 172C104.3 175 208.7 181 312.8 174C417 167 521 147 625.2 142C729.3 137 833.7 147 937.8 149C1042 151 1146 145 1198 142L1250 139L1250 0L1198 0C1146 0 1042 0 937.8 0C833.7 0 729.3 0 625.2 0C521 0 417 0 312.8 0C208.7 0 104.3 0 52.2 0L0 0Z" fill="#97c355"></path><path d="M0 241L52.2 244C104.3 247 208.7 253 312.8 255C417 257 521 255 625.2 253C729.3 251 833.7 249 937.8 245C1042 241 1146 235 1198 232L1250 229L1250 137L1198 140C1146 143 1042 149 937.8 147C833.7 145 729.3 135 625.2 140C521 145 417 165 312.8 172C208.7 179 104.3 173 52.2 170L0 167Z" fill="#47c794"></path><path d="M0 337L52.2 341C104.3 345 208.7 353 312.8 353C417 353 521 345 625.2 342C729.3 339 833.7 341 937.8 336C1042 331 1146 319 1198 313L1250 307L1250 227L1198 230C1146 233 1042 239 937.8 243C833.7 247 729.3 249 625.2 251C521 253 417 255 312.8 253C208.7 251 104.3 245 52.2 242L0 239Z" fill="#00c2c8"></path><path d="M0 523L52.2 522C104.3 521 208.7 519 312.8 518C417 517 521 517 625.2 516C729.3 515 833.7 513 937.8 516C1042 519 1146 527 1198 531L1250 535L1250 305L1198 311C1146 317 1042 329 937.8 334C833.7 339 729.3 337 625.2 340C521 343 417 351 312.8 351C208.7 351 104.3 343 52.2 339L0 335Z" fill="#00b6ee"></path><path d="M0 601L52.2 601C104.3 601 208.7 601 312.8 601C417 601 521 601 625.2 601C729.3 601 833.7 601 937.8 601C1042 601 1146 601 1198 601L1250 601L1250 533L1198 529C1146 525 1042 517 937.8 514C833.7 511 729.3 513 625.2 514C521 515 417 515 312.8 516C208.7 517 104.3 519 52.2 520L0 521Z" fill="#46a0ff"></path></svg>