<svg id="visual" viewBox="0 0 1650 300" width="1650" height="300" xmlns="http://www.w3.org/2000/svg" xmlns:xlink="http://www.w3.org/1999/xlink" version="1.1"><rect x="0" y="0" width="1650" height="300" fill="#232935"></rect><path d="M0 118L39.3 118.5C78.7 119 157.3 120 235.8 121.7C314.3 123.3 392.7 125.7 471.2 130.2C549.7 134.7 628.3 141.3 707 139.5C785.7 137.7 864.3 127.3 943 126.3C1021.7 125.3 1100.3 133.7 1178.8 139C1257.3 144.3 1335.7 146.7 1414.2 147C1492.7 147.3 1571.3 145.7 1610.7 144.8L1650 144L1650 301L1610.7 301C1571.3 301 1492.7 301 1414.2 301C1335.7 301 1257.3 301 1178.8 301C1100.3 301 1021.7 301 943 301C864.3 301 785.7 301 707 301C628.3 301 549.7 301 471.2 301C392.7 301 314.3 301 235.8 301C157.3 301 78.7 301 39.3 301L0 301Z" fill="#4772b0"></path><path d="M0 187L39.3 184.5C78.7 182 157.3 177 235.8 177.7C314.3 178.3 392.7 184.7 471.2 183.3C549.7 182 628.3 173 707 167C785.7 161 864.3 158 943 163.8C1021.7 169.7 1100.3 184.3 1178.8 188C1257.3 191.7 1335.7 184.3 1414.2 183.2C1492.7 182 1571.3 187 1610.7 189.5L1650 192L1650 301L1610.7 301C1571.3 301 1492.7 301 1414.2 301C1335.7 301 1257.3 301 1178.8 301C1100.3 301 1021.7 301 943 301C864.3 301 785.7 301 707 301C628.3 301 549.7 301 471.2 301C392.7 301 314.3 301 235.8 301C157.3 301 78.7 301 39.3 301L0 301Z" fill="#0098b6"></path><path d="M0 207L39.3 211.2C78.7 215.3 157.3 223.7 235.8 223.8C314.3 224 392.7 216 471.2 213.7C549.7 211.3 628.3 214.7 707 218.2C785.7 221.7 864.3 225.3 943 225.8C1021.7 226.3 1100.3 223.7 1178.8 221.7C1257.3 219.7 1335.7 218.3 1414.2 218.3C1492.7 218.3 1571.3 219.7 1610.7 220.3L1650 221L1650 301L1610.7 301C1571.3 301 1492.7 301 1414.2 301C1335.7 301 1257.3 301 1178.8 301C1100.3 301 1021.7 301 943 301C864.3 301 785.7 301 707 301C628.3 301 549.7 301 471.2 301C392.7 301 314.3 301 235.8 301C157.3 301 78.7 301 39.3 301L0 301Z" fill="#36b498"></path><path d="M0 250L39.3 252C78.7 254 157.3 258 235.8 260.3C314.3 262.7 392.7 263.3 471.2 259.5C549.7 255.7 628.3 247.3 707 249.2C785.7 251 864.3 263 943 267.5C1021.7 272 1100.3 269 1178.8 269C1257.3 269 1335.7 272 1414.2 270.8C1492.7 269.7 1571.3 264.3 1610.7 261.7L1650 259L1650 301L1610.7 301C1571.3 301 1492.7 301 1414.2 301C1335.7 301 1257.3 301 1178.8 301C1100.3 301 1021.7 301 943 301C864.3 301 785.7 301 707 301C628.3 301 549.7 301 471.2 301C392.7 301 314.3 301 235.8 301C157.3 301 78.7 301 39.3 301L0 301Z" fill="#a0c264"></path></svg>