<svg id="visual" viewBox="0 0 1250 600" width="1250" height="600" xmlns="http://www.w3.org/2000/svg" xmlns:xlink="http://www.w3.org/1999/xlink" version="1.1"><rect x="0" y="0" width="1250" height="600" fill="#212936"></rect><path d="M0 289L34.7 282C69.3 275 138.7 261 208.2 257.5C277.7 254 347.3 261 416.8 268.8C486.3 276.7 555.7 285.3 625 290.3C694.3 295.3 763.7 296.7 833.2 299.3C902.7 302 972.3 306 1041.8 303.7C1111.3 301.3 1180.7 292.7 1215.3 288.3L1250 284L1250 601L1215.3 601C1180.7 601 1111.3 601 1041.8 601C972.3 601 902.7 601 833.2 601C763.7 601 694.3 601 625 601C555.7 601 486.3 601 416.8 601C347.3 601 277.7 601 208.2 601C138.7 601 69.3 601 34.7 601L0 601Z" fill="#97c355"></path><path d="M0 392L34.7 382.7C69.3 373.3 138.7 354.7 208.2 348.8C277.7 343 347.3 350 416.8 352.7C486.3 355.3 555.7 353.7 625 352.3C694.3 351 763.7 350 833.2 353.5C902.7 357 972.3 365 1041.8 365C1111.3 365 1180.7 357 1215.3 353L1250 349L1250 601L1215.3 601C1180.7 601 1111.3 601 1041.8 601C972.3 601 902.7 601 833.2 601C763.7 601 694.3 601 625 601C555.7 601 486.3 601 416.8 601C347.3 601 277.7 601 208.2 601C138.7 601 69.3 601 34.7 601L0 601Z" fill="#28c6a8"></path><path d="M0 428L34.7 424.7C69.3 421.3 138.7 414.7 208.2 413.5C277.7 412.3 347.3 416.7 416.8 423.3C486.3 430 555.7 439 625 439.3C694.3 439.7 763.7 431.3 833.2 427.2C902.7 423 972.3 423 1041.8 420.8C1111.3 418.7 1180.7 414.3 1215.3 412.2L1250 410L1250 601L1215.3 601C1180.7 601 1111.3 601 1041.8 601C972.3 601 902.7 601 833.2 601C763.7 601 694.3 601 625 601C555.7 601 486.3 601 416.8 601C347.3 601 277.7 601 208.2 601C138.7 601 69.3 601 34.7 601L0 601Z" fill="#00bbe2"></path><path d="M0 487L34.7 492.5C69.3 498 138.7 509 208.2 512.5C277.7 516 347.3 512 416.8 505.8C486.3 499.7 555.7 491.3 625 490C694.3 488.7 763.7 494.3 833.2 497C902.7 499.7 972.3 499.3 1041.8 500.7C1111.3 502 1180.7 505 1215.3 506.5L1250 508L1250 601L1215.3 601C1180.7 601 1111.3 601 1041.8 601C972.3 601 902.7 601 833.2 601C763.7 601 694.3 601 625 601C555.7 601 486.3 601 416.8 601C347.3 601 277.7 601 208.2 601C138.7 601 69.3 601 34.7 601L0 601Z" fill="#46a0ff"></path></svg>