<svg id="visual" viewBox="0 0 1250 600" width="1250" height="600" xmlns="http://www.w3.org/2000/svg" xmlns:xlink="http://www.w3.org/1999/xlink" version="1.1"><path d="M0 121L52.2 138C104.3 155 208.7 189 312.8 190C417 191 521 159 625.2 144C729.3 129 833.7 131 937.8 139C1042 147 1146 161 1198 168L1250 175L1250 0L1198 0C1146 0 1042 0 937.8 0C833.7 0 729.3 0 625.2 0C521 0 417 0 312.8 0C208.7 0 104.3 0 52.2 0L0 0Z" fill="#46a0ff"></path><path d="M0 313L52.2 320C104.3 327 208.7 341 312.8 350C417 359 521 363 625.2 362C729.3 361 833.7 355 937.8 357C1042 359 1146 369 1198 374L1250 379L1250 173L1198 166C1146 159 1042 145 937.8 137C833.7 129 729.3 127 625.2 142C521 157 417 189 312.8 188C208.7 187 104.3 153 52.2 136L0 119Z" fill="#00b6ee"></path><path d="M0 403L52.2 403C104.3 403 208.7 403 312.8 407C417 411 521 419 625.2 419C729.3 419 833.7 411 937.8 412C1042 413 1146 423 1198 428L1250 433L1250 377L1198 372C1146 367 1042 357 937.8 355C833.7 353 729.3 359 625.2 360C521 361 417 357 312.8 348C208.7 339 104.3 325 52.2 318L0 311Z" fill="#00c2c8"></path><path d="M0 481L52.2 482C104.3 483 208.7 485 312.8 490C417 495 521 503 625.2 506C729.3 509 833.7 507 937.8 508C1042 509 1146 513 1198 515L1250 517L1250 431L1198 426C1146 421 1042 411 937.8 410C833.7 409 729.3 417 625.2 417C521 417 417 409 312.8 405C208.7 401 104.3 401 52.2 401L0 401Z" fill="#47c794"></path><path d="M0 601L52.2 601C104.3 601 208.7 601 312.8 601C417 601 521 601 625.2 601C729.3 601 833.7 601 937.8 601C1042 601 1146 601 1198 601L1250 601L1250 515L1198 513C1146 511 1042 507 937.8 506C833.7 505 729.3 507 625.2 504C521 501 417 493 312.8 488C208.7 483 104.3 481 52.2 480L0 479Z" fill="#97c355"></path></svg>