<svg id="visual" viewBox="0 0 1250 300" width="1250" height="300" xmlns="http://www.w3.org/2000/svg" xmlns:xlink="http://www.w3.org/1999/xlink" version="1.1"><rect x="0" y="0" width="1250" height="300" fill="#212936"></rect><path d="M0 96L34.7 93.7C69.3 91.3 138.7 86.7 208.2 88.5C277.7 90.3 347.3 98.7 416.8 103C486.3 107.3 555.7 107.7 625 106.8C694.3 106 763.7 104 833.2 104.7C902.7 105.3 972.3 108.7 1041.8 108.8C1111.3 109 1180.7 106 1215.3 104.5L1250 103L1250 0L1215.3 0C1180.7 0 1111.3 0 1041.8 0C972.3 0 902.7 0 833.2 0C763.7 0 694.3 0 625 0C555.7 0 486.3 0 416.8 0C347.3 0 277.7 0 208.2 0C138.7 0 69.3 0 34.7 0L0 0Z" fill="#97c355"></path><path d="M0 62L34.7 66.2C69.3 70.3 138.7 78.7 208.2 80C277.7 81.3 347.3 75.7 416.8 74.5C486.3 73.3 555.7 76.7 625 77C694.3 77.3 763.7 74.7 833.2 74.5C902.7 74.3 972.3 76.7 1041.8 76.5C1111.3 76.3 1180.7 73.7 1215.3 72.3L1250 71L1250 0L1215.3 0C1180.7 0 1111.3 0 1041.8 0C972.3 0 902.7 0 833.2 0C763.7 0 694.3 0 625 0C555.7 0 486.3 0 416.8 0C347.3 0 277.7 0 208.2 0C138.7 0 69.3 0 34.7 0L0 0Z" fill="#28c6a8"></path><path d="M0 59L34.7 57C69.3 55 138.7 51 208.2 49.8C277.7 48.7 347.3 50.3 416.8 51.8C486.3 53.3 555.7 54.7 625 53.5C694.3 52.3 763.7 48.7 833.2 46C902.7 43.3 972.3 41.7 1041.8 44.3C1111.3 47 1180.7 54 1215.3 57.5L1250 61L1250 0L1215.3 0C1180.7 0 1111.3 0 1041.8 0C972.3 0 902.7 0 833.2 0C763.7 0 694.3 0 625 0C555.7 0 486.3 0 416.8 0C347.3 0 277.7 0 208.2 0C138.7 0 69.3 0 34.7 0L0 0Z" fill="#00bbe2"></path><path d="M0 37L34.7 35C69.3 33 138.7 29 208.2 28C277.7 27 347.3 29 416.8 30C486.3 31 555.7 31 625 29.5C694.3 28 763.7 25 833.2 25.8C902.7 26.7 972.3 31.3 1041.8 32.3C1111.3 33.3 1180.7 30.7 1215.3 29.3L1250 28L1250 0L1215.3 0C1180.7 0 1111.3 0 1041.8 0C972.3 0 902.7 0 833.2 0C763.7 0 694.3 0 625 0C555.7 0 486.3 0 416.8 0C347.3 0 277.7 0 208.2 0C138.7 0 69.3 0 34.7 0L0 0Z" fill="#46a0ff"></path></svg>