<svg id="visual" viewBox="0 0 1650 300" width="1650" height="300" xmlns="http://www.w3.org/2000/svg" xmlns:xlink="http://www.w3.org/1999/xlink" version="1.1"><path d="M0 19L23 21C46 23 92 27 137.8 28.5C183.7 30 229.3 29 275.2 27.5C321 26 367 24 412.8 24C458.7 24 504.3 26 550.2 26C596 26 642 24 687.8 24C733.7 24 779.3 26 825.2 28C871 30 917 32 962.8 30.5C1008.7 29 1054.3 24 1100.2 22.5C1146 21 1192 23 1237.8 22C1283.7 21 1329.3 17 1375.2 19C1421 21 1467 29 1512.8 33C1558.7 37 1604.3 37 1627.2 37L1650 37L1650 0L1627.2 0C1604.3 0 1558.7 0 1512.8 0C1467 0 1421 0 1375.2 0C1329.3 0 1283.7 0 1237.8 0C1192 0 1146 0 1100.2 0C1054.3 0 1008.7 0 962.8 0C917 0 871 0 825.2 0C779.3 0 733.7 0 687.8 0C642 0 596 0 550.2 0C504.3 0 458.7 0 412.8 0C367 0 321 0 275.2 0C229.3 0 183.7 0 137.8 0C92 0 46 0 23 0L0 0Z" fill="#a7c170"></path><path d="M0 55L23 62C46 69 92 83 137.8 87C183.7 91 229.3 85 275.2 81C321 77 367 75 412.8 72.5C458.7 70 504.3 67 550.2 64.5C596 62 642 60 687.8 58C733.7 56 779.3 54 825.2 56.5C871 59 917 66 962.8 70.5C1008.7 75 1054.3 77 1100.2 78.5C1146 80 1192 81 1237.8 76.5C1283.7 72 1329.3 62 1375.2 60C1421 58 1467 64 1512.8 70C1558.7 76 1604.3 82 1627.2 85L1650 88L1650 35L1627.2 35C1604.3 35 1558.7 35 1512.8 31C1467 27 1421 19 1375.2 17C1329.3 15 1283.7 19 1237.8 20C1192 21 1146 19 1100.2 20.5C1054.3 22 1008.7 27 962.8 28.5C917 30 871 28 825.2 26C779.3 24 733.7 22 687.8 22C642 22 596 24 550.2 24C504.3 24 458.7 22 412.8 22C367 22 321 24 275.2 25.5C229.3 27 183.7 28 137.8 26.5C92 25 46 21 23 19L0 17Z" fill="#76bc81"></path><path d="M0 154L23 156.5C46 159 92 164 137.8 165C183.7 166 229.3 163 275.2 155.5C321 148 367 136 412.8 137.5C458.7 139 504.3 154 550.2 161.5C596 169 642 169 687.8 161.5C733.7 154 779.3 139 825.2 139.5C871 140 917 156 962.8 158.5C1008.7 161 1054.3 150 1100.2 145C1146 140 1192 141 1237.8 145C1283.7 149 1329.3 156 1375.2 152C1421 148 1467 133 1512.8 131.5C1558.7 130 1604.3 142 1627.2 148L1650 154L1650 86L1627.2 83C1604.3 80 1558.7 74 1512.8 68C1467 62 1421 56 1375.2 58C1329.3 60 1283.7 70 1237.8 74.5C1192 79 1146 78 1100.2 76.5C1054.3 75 1008.7 73 962.8 68.5C917 64 871 57 825.2 54.5C779.3 52 733.7 54 687.8 56C642 58 596 60 550.2 62.5C504.3 65 458.7 68 412.8 70.5C367 73 321 75 275.2 79C229.3 83 183.7 89 137.8 85C92 81 46 67 23 60L0 53Z" fill="#45b396"></path><path d="M0 211L23 212C46 213 92 215 137.8 215.5C183.7 216 229.3 215 275.2 217C321 219 367 224 412.8 225C458.7 226 504.3 223 550.2 224.5C596 226 642 232 687.8 229C733.7 226 779.3 214 825.2 211C871 208 917 214 962.8 221C1008.7 228 1054.3 236 1100.2 236C1146 236 1192 228 1237.8 222C1283.7 216 1329.3 212 1375.2 213.5C1421 215 1467 222 1512.8 224.5C1558.7 227 1604.3 225 1627.2 224L1650 223L1650 152L1627.2 146C1604.3 140 1558.7 128 1512.8 129.5C1467 131 1421 146 1375.2 150C1329.3 154 1283.7 147 1237.8 143C1192 139 1146 138 1100.2 143C1054.3 148 1008.7 159 962.8 156.5C917 154 871 138 825.2 137.5C779.3 137 733.7 152 687.8 159.5C642 167 596 167 550.2 159.5C504.3 152 458.7 137 412.8 135.5C367 134 321 146 275.2 153.5C229.3 161 183.7 164 137.8 163C92 162 46 157 23 154.5L0 152Z" fill="#00a7a8"></path><path d="M0 241L23 242C46 243 92 245 137.8 242.5C183.7 240 229.3 233 275.2 234C321 235 367 244 412.8 247C458.7 250 504.3 247 550.2 246.5C596 246 642 248 687.8 244C733.7 240 779.3 230 825.2 230C871 230 917 240 962.8 246.5C1008.7 253 1054.3 256 1100.2 256.5C1146 257 1192 255 1237.8 252C1283.7 249 1329.3 245 1375.2 245.5C1421 246 1467 251 1512.8 251C1558.7 251 1604.3 246 1627.2 243.5L1650 241L1650 221L1627.2 222C1604.3 223 1558.7 225 1512.8 222.5C1467 220 1421 213 1375.2 211.5C1329.3 210 1283.7 214 1237.8 220C1192 226 1146 234 1100.2 234C1054.3 234 1008.7 226 962.8 219C917 212 871 206 825.2 209C779.3 212 733.7 224 687.8 227C642 230 596 224 550.2 222.5C504.3 221 458.7 224 412.8 223C367 222 321 217 275.2 215C229.3 213 183.7 214 137.8 213.5C92 213 46 211 23 210L0 209Z" fill="#0099b6"></path><path d="M0 274L23 274C46 274 92 274 137.8 270C183.7 266 229.3 258 275.2 257C321 256 367 262 412.8 264C458.7 266 504.3 264 550.2 265.5C596 267 642 272 687.8 269.5C733.7 267 779.3 257 825.2 255C871 253 917 259 962.8 264C1008.7 269 1054.3 273 1100.2 273.5C1146 274 1192 271 1237.8 268.5C1283.7 266 1329.3 264 1375.2 265C1421 266 1467 270 1512.8 271C1558.7 272 1604.3 270 1627.2 269L1650 268L1650 239L1627.2 241.5C1604.3 244 1558.7 249 1512.8 249C1467 249 1421 244 1375.2 243.5C1329.3 243 1283.7 247 1237.8 250C1192 253 1146 255 1100.2 254.5C1054.3 254 1008.7 251 962.8 244.5C917 238 871 228 825.2 228C779.3 228 733.7 238 687.8 242C642 246 596 244 550.2 244.5C504.3 245 458.7 248 412.8 245C367 242 321 233 275.2 232C229.3 231 183.7 238 137.8 240.5C92 243 46 241 23 240L0 239Z" fill="#0088bd"></path><path d="M0 301L23 301C46 301 92 301 137.8 301C183.7 301 229.3 301 275.2 301C321 301 367 301 412.8 301C458.7 301 504.3 301 550.2 301C596 301 642 301 687.8 301C733.7 301 779.3 301 825.2 301C871 301 917 301 962.8 301C1008.7 301 1054.3 301 1100.2 301C1146 301 1192 301 1237.8 301C1283.7 301 1329.3 301 1375.2 301C1421 301 1467 301 1512.8 301C1558.7 301 1604.3 301 1627.2 301L1650 301L1650 266L1627.2 267C1604.3 268 1558.7 270 1512.8 269C1467 268 1421 264 1375.2 263C1329.3 262 1283.7 264 1237.8 266.5C1192 269 1146 272 1100.2 271.5C1054.3 271 1008.7 267 962.8 262C917 257 871 251 825.2 253C779.3 255 733.7 265 687.8 267.5C642 270 596 265 550.2 263.5C504.3 262 458.7 264 412.8 262C367 260 321 254 275.2 255C229.3 256 183.7 264 137.8 268C92 272 46 272 23 272L0 272Z" fill="#3374b8"></path></svg>